<?xml version="1.0" encoding="UTF-8" standalone="no"?>
<!DOCTYPE svg PUBLIC "-//W3C//DTD SVG 1.1//EN"
 "http://www.w3.org/Graphics/SVG/1.1/DTD/svg11.dtd">
<!-- Generated by graphviz version 2.43.0 (0)
 -->
<!-- Title: G Pages: 1 -->
<svg width="708pt" height="260pt"
 viewBox="0.00 0.00 708.00 260.00" xmlns="http://www.w3.org/2000/svg" xmlns:xlink="http://www.w3.org/1999/xlink">
<g id="graph0" class="graph" transform="scale(1 1) rotate(0) translate(4 256)">
<title>G</title>
<polygon fill="white" stroke="transparent" points="-4,4 -4,-256 704,-256 704,4 -4,4"/>
<!-- iphoneos12.1 -->
<g id="node1" class="node">
<title>iphoneos12.1</title>
<polygon fill="none" stroke="#7b3524" points="318,-180 315,-184 294,-184 291,-180 206,-180 206,-144 318,-144 318,-180"/>
<text text-anchor="middle" x="262" y="-158.3" font-family="Times,serif" font-size="14.00" fill="#7b3524">iphoneos12.1</text>
</g>
<!-- Debug3 -->
<g id="node3" class="node">
<title>Debug3</title>
<polygon fill="none" stroke="#3b5574" points="137.5,-108 134.5,-112 113.5,-112 110.5,-108 74.5,-108 74.5,-72 137.5,-72 137.5,-108"/>
<text text-anchor="middle" x="106" y="-86.3" font-family="Times,serif" font-size="14.00" fill="#3b5574">Debug</text>
</g>
<!-- iphoneos12.1&#45;&gt;Debug3 -->
<g id="edge3" class="edge">
<title>iphoneos12.1&#45;&gt;Debug3</title>
<path fill="none" stroke="black" d="M223.84,-143.88C197.41,-132.02 162.64,-116.41 137.73,-105.24"/>
</g>
<!-- lib1 -->
<g id="node8" class="node">
<title>lib1</title>
<polygon fill="none" stroke="gray" points="210,-108 207,-112 186,-112 183,-108 156,-108 156,-72 210,-72 210,-108"/>
<text text-anchor="middle" x="183" y="-86.3" font-family="Times,serif" font-size="14.00" fill="gray">lib</text>
</g>
<!-- iphoneos12.1&#45;&gt;lib1 -->
<g id="edge7" class="edge">
<title>iphoneos12.1&#45;&gt;lib1</title>
<path fill="none" stroke="black" d="M242.47,-143.7C230.23,-132.85 214.51,-118.92 202.3,-108.1"/>
</g>
<!-- include1 -->
<g id="node9" class="node">
<title>include1</title>
<polygon fill="none" stroke="gray" points="296,-108 293,-112 272,-112 269,-108 228,-108 228,-72 296,-72 296,-108"/>
<text text-anchor="middle" x="262" y="-86.3" font-family="Times,serif" font-size="14.00" fill="gray">include</text>
</g>
<!-- iphoneos12.1&#45;&gt;include1 -->
<g id="edge8" class="edge">
<title>iphoneos12.1&#45;&gt;include1</title>
<path fill="none" stroke="black" d="M262,-143.7C262,-132.85 262,-118.92 262,-108.1"/>
</g>
<!-- Frameworks1 -->
<g id="node10" class="node">
<title>Frameworks1</title>
<polygon fill="none" stroke="gray" points="420,-108 417,-112 396,-112 393,-108 314,-108 314,-72 420,-72 420,-108"/>
<text text-anchor="middle" x="367" y="-86.3" font-family="Times,serif" font-size="14.00" fill="gray">Frameworks</text>
</g>
<!-- iphoneos12.1&#45;&gt;Frameworks1 -->
<g id="edge9" class="edge">
<title>iphoneos12.1&#45;&gt;Frameworks1</title>
<path fill="none" stroke="black" d="M287.69,-143.88C303.96,-133.03 324.93,-119.05 341.22,-108.19"/>
</g>
<!-- Debug2 -->
<g id="node2" class="node">
<title>Debug2</title>
<polygon fill="none" stroke="#3b5574" points="501.5,-108 498.5,-112 477.5,-112 474.5,-108 438.5,-108 438.5,-72 501.5,-72 501.5,-108"/>
<text text-anchor="middle" x="470" y="-86.3" font-family="Times,serif" font-size="14.00" fill="#3b5574">Debug</text>
</g>
<!-- lib2 -->
<g id="node11" class="node">
<title>lib2</title>
<polygon fill="none" stroke="gray" points="418,-36 415,-40 394,-40 391,-36 364,-36 364,0 418,0 418,-36"/>
<text text-anchor="middle" x="391" y="-14.3" font-family="Times,serif" font-size="14.00" fill="gray">lib</text>
</g>
<!-- Debug2&#45;&gt;lib2 -->
<g id="edge10" class="edge">
<title>Debug2&#45;&gt;lib2</title>
<path fill="none" stroke="black" d="M450.47,-71.7C438.23,-60.85 422.51,-46.92 410.3,-36.1"/>
</g>
<!-- include2 -->
<g id="node12" class="node">
<title>include2</title>
<polygon fill="none" stroke="gray" points="504,-36 501,-40 480,-40 477,-36 436,-36 436,0 504,0 504,-36"/>
<text text-anchor="middle" x="470" y="-14.3" font-family="Times,serif" font-size="14.00" fill="gray">include</text>
</g>
<!-- Debug2&#45;&gt;include2 -->
<g id="edge11" class="edge">
<title>Debug2&#45;&gt;include2</title>
<path fill="none" stroke="black" d="M470,-71.7C470,-60.85 470,-46.92 470,-36.1"/>
</g>
<!-- Frameworks2 -->
<g id="node13" class="node">
<title>Frameworks2</title>
<polygon fill="none" stroke="gray" points="628,-36 625,-40 604,-40 601,-36 522,-36 522,0 628,0 628,-36"/>
<text text-anchor="middle" x="575" y="-14.3" font-family="Times,serif" font-size="14.00" fill="gray">Frameworks</text>
</g>
<!-- Debug2&#45;&gt;Frameworks2 -->
<g id="edge12" class="edge">
<title>Debug2&#45;&gt;Frameworks2</title>
<path fill="none" stroke="black" d="M495.69,-71.88C511.96,-61.03 532.93,-47.05 549.22,-36.19"/>
</g>
<!-- lib3 -->
<g id="node14" class="node">
<title>lib3</title>
<polygon fill="none" stroke="gray" points="54,-36 51,-40 30,-40 27,-36 0,-36 0,0 54,0 54,-36"/>
<text text-anchor="middle" x="27" y="-14.3" font-family="Times,serif" font-size="14.00" fill="gray">lib</text>
</g>
<!-- Debug3&#45;&gt;lib3 -->
<g id="edge13" class="edge">
<title>Debug3&#45;&gt;lib3</title>
<path fill="none" stroke="black" d="M86.47,-71.7C74.23,-60.85 58.51,-46.92 46.3,-36.1"/>
</g>
<!-- include3 -->
<g id="node15" class="node">
<title>include3</title>
<polygon fill="none" stroke="gray" points="140,-36 137,-40 116,-40 113,-36 72,-36 72,0 140,0 140,-36"/>
<text text-anchor="middle" x="106" y="-14.3" font-family="Times,serif" font-size="14.00" fill="gray">include</text>
</g>
<!-- Debug3&#45;&gt;include3 -->
<g id="edge14" class="edge">
<title>Debug3&#45;&gt;include3</title>
<path fill="none" stroke="black" d="M106,-71.7C106,-60.85 106,-46.92 106,-36.1"/>
</g>
<!-- Frameworks3 -->
<g id="node16" class="node">
<title>Frameworks3</title>
<polygon fill="none" stroke="gray" points="264,-36 261,-40 240,-40 237,-36 158,-36 158,0 264,0 264,-36"/>
<text text-anchor="middle" x="211" y="-14.3" font-family="Times,serif" font-size="14.00" fill="gray">Frameworks</text>
</g>
<!-- Debug3&#45;&gt;Frameworks3 -->
<g id="edge15" class="edge">
<title>Debug3&#45;&gt;Frameworks3</title>
<path fill="none" stroke="black" d="M131.69,-71.88C147.96,-61.03 168.93,-47.05 185.22,-36.19"/>
</g>
<!-- dependency -->
<g id="node4" class="node">
<title>dependency</title>
<polygon fill="none" stroke="black" points="514,-252 511,-256 490,-256 487,-252 412,-252 412,-216 514,-216 514,-252"/>
<text text-anchor="middle" x="463" y="-230.3" font-family="Times,serif" font-size="14.00">dependency</text>
</g>
<!-- dependency&#45;&gt;iphoneos12.1 -->
<g id="edge1" class="edge">
<title>dependency&#45;&gt;iphoneos12.1</title>
<path fill="none" stroke="black" d="M414.09,-215.97C382.83,-205.08 342.43,-191.01 311.13,-180.11"/>
</g>
<!-- dependency&#45;&gt;Debug2 -->
<g id="edge2" class="edge">
<title>dependency&#45;&gt;Debug2</title>
<path fill="none" stroke="black" d="M447.39,-215.77C439.63,-206.03 431.05,-193.18 427,-180 422.3,-164.71 421.65,-159.08 427,-144 431.83,-130.38 441.82,-117.7 450.96,-108.16"/>
</g>
<!-- lib -->
<g id="node5" class="node">
<title>lib</title>
<polygon fill="none" stroke="gray" points="490,-180 487,-184 466,-184 463,-180 436,-180 436,-144 490,-144 490,-180"/>
<text text-anchor="middle" x="463" y="-158.3" font-family="Times,serif" font-size="14.00" fill="gray">lib</text>
</g>
<!-- dependency&#45;&gt;lib -->
<g id="edge4" class="edge">
<title>dependency&#45;&gt;lib</title>
<path fill="none" stroke="black" d="M463,-215.7C463,-204.85 463,-190.92 463,-180.1"/>
</g>
<!-- include -->
<g id="node6" class="node">
<title>include</title>
<polygon fill="none" stroke="gray" points="576,-180 573,-184 552,-184 549,-180 508,-180 508,-144 576,-144 576,-180"/>
<text text-anchor="middle" x="542" y="-158.3" font-family="Times,serif" font-size="14.00" fill="gray">include</text>
</g>
<!-- dependency&#45;&gt;include -->
<g id="edge5" class="edge">
<title>dependency&#45;&gt;include</title>
<path fill="none" stroke="black" d="M482.53,-215.7C494.77,-204.85 510.49,-190.92 522.7,-180.1"/>
</g>
<!-- Frameworks -->
<g id="node7" class="node">
<title>Frameworks</title>
<polygon fill="none" stroke="gray" points="700,-180 697,-184 676,-184 673,-180 594,-180 594,-144 700,-144 700,-180"/>
<text text-anchor="middle" x="647" y="-158.3" font-family="Times,serif" font-size="14.00" fill="gray">Frameworks</text>
</g>
<!-- dependency&#45;&gt;Frameworks -->
<g id="edge6" class="edge">
<title>dependency&#45;&gt;Frameworks</title>
<path fill="none" stroke="black" d="M508.01,-215.88C536.63,-204.99 573.54,-190.95 602.13,-180.07"/>
</g>
</g>
</svg>
