<?xml version="1.0" encoding="UTF-8" standalone="no"?>
<!DOCTYPE svg PUBLIC "-//W3C//DTD SVG 1.1//EN"
 "http://www.w3.org/Graphics/SVG/1.1/DTD/svg11.dtd">
<!-- Generated by graphviz version 2.43.0 (0)
 -->
<!-- Title: G Pages: 1 -->
<svg width="1118pt" height="260pt"
 viewBox="0.00 0.00 1118.00 260.00" xmlns="http://www.w3.org/2000/svg" xmlns:xlink="http://www.w3.org/1999/xlink">
<g id="graph0" class="graph" transform="scale(1 1) rotate(0) translate(4 256)">
<title>G</title>
<polygon fill="white" stroke="transparent" points="-4,4 -4,-256 1114,-256 1114,4 -4,4"/>
<!-- iphoneos12.1 -->
<g id="node1" class="node">
<title>iphoneos12.1</title>
<polygon fill="none" stroke="#7b3524" points="444,-180 441,-184 420,-184 417,-180 332,-180 332,-144 444,-144 444,-180"/>
<text text-anchor="middle" x="388" y="-158.3" font-family="Times,serif" font-size="14.00" fill="#7b3524">iphoneos12.1</text>
</g>
<!-- Release1 -->
<g id="node4" class="node">
<title>Release1</title>
<polygon fill="none" stroke="#3b5574" points="195,-108 192,-112 171,-112 168,-108 123,-108 123,-72 195,-72 195,-108"/>
<text text-anchor="middle" x="159" y="-86.3" font-family="Times,serif" font-size="14.00" fill="#3b5574">Release</text>
</g>
<!-- iphoneos12.1&#45;&gt;Release1 -->
<g id="edge4" class="edge">
<title>iphoneos12.1&#45;&gt;Release1</title>
<path fill="none" stroke="black" d="M332.27,-143.97C289.64,-130.93 232.1,-113.34 195.26,-102.08"/>
</g>
<!-- Debug3 -->
<g id="node6" class="node">
<title>Debug3</title>
<polygon fill="none" stroke="#3b5574" points="419.5,-108 416.5,-112 395.5,-112 392.5,-108 356.5,-108 356.5,-72 419.5,-72 419.5,-108"/>
<text text-anchor="middle" x="388" y="-86.3" font-family="Times,serif" font-size="14.00" fill="#3b5574">Debug</text>
</g>
<!-- iphoneos12.1&#45;&gt;Debug3 -->
<g id="edge6" class="edge">
<title>iphoneos12.1&#45;&gt;Debug3</title>
<path fill="none" stroke="black" d="M388,-143.7C388,-132.85 388,-118.92 388,-108.1"/>
</g>
<!-- macosx10.14 -->
<g id="node2" class="node">
<title>macosx10.14</title>
<polygon fill="none" stroke="#7b3524" points="725,-180 722,-184 701,-184 698,-180 615,-180 615,-144 725,-144 725,-180"/>
<text text-anchor="middle" x="670" y="-158.3" font-family="Times,serif" font-size="14.00" fill="#7b3524">macosx10.14</text>
</g>
<!-- Release -->
<g id="node3" class="node">
<title>Release</title>
<polygon fill="none" stroke="#3b5574" points="706,-108 703,-112 682,-112 679,-108 634,-108 634,-72 706,-72 706,-108"/>
<text text-anchor="middle" x="670" y="-86.3" font-family="Times,serif" font-size="14.00" fill="#3b5574">Release</text>
</g>
<!-- macosx10.14&#45;&gt;Release -->
<g id="edge2" class="edge">
<title>macosx10.14&#45;&gt;Release</title>
<path fill="none" stroke="black" d="M670,-143.7C670,-132.85 670,-118.92 670,-108.1"/>
</g>
<!-- Debug2 -->
<g id="node5" class="node">
<title>Debug2</title>
<polygon fill="none" stroke="#3b5574" points="943.5,-108 940.5,-112 919.5,-112 916.5,-108 880.5,-108 880.5,-72 943.5,-72 943.5,-108"/>
<text text-anchor="middle" x="912" y="-86.3" font-family="Times,serif" font-size="14.00" fill="#3b5574">Debug</text>
</g>
<!-- macosx10.14&#45;&gt;Debug2 -->
<g id="edge5" class="edge">
<title>macosx10.14&#45;&gt;Debug2</title>
<path fill="none" stroke="black" d="M725.22,-145.03C773.2,-131.15 841.03,-111.53 880.37,-100.15"/>
</g>
<!-- lib -->
<g id="node8" class="node">
<title>lib</title>
<polygon fill="none" stroke="gray" points="618,-36 615,-40 594,-40 591,-36 564,-36 564,0 618,0 618,-36"/>
<text text-anchor="middle" x="591" y="-14.3" font-family="Times,serif" font-size="14.00" fill="gray">lib</text>
</g>
<!-- Release&#45;&gt;lib -->
<g id="edge7" class="edge">
<title>Release&#45;&gt;lib</title>
<path fill="none" stroke="black" d="M650.47,-71.7C638.23,-60.85 622.51,-46.92 610.3,-36.1"/>
</g>
<!-- include -->
<g id="node9" class="node">
<title>include</title>
<polygon fill="none" stroke="gray" points="704,-36 701,-40 680,-40 677,-36 636,-36 636,0 704,0 704,-36"/>
<text text-anchor="middle" x="670" y="-14.3" font-family="Times,serif" font-size="14.00" fill="gray">include</text>
</g>
<!-- Release&#45;&gt;include -->
<g id="edge8" class="edge">
<title>Release&#45;&gt;include</title>
<path fill="none" stroke="black" d="M670,-71.7C670,-60.85 670,-46.92 670,-36.1"/>
</g>
<!-- Frameworks -->
<g id="node10" class="node">
<title>Frameworks</title>
<polygon fill="none" stroke="gray" points="828,-36 825,-40 804,-40 801,-36 722,-36 722,0 828,0 828,-36"/>
<text text-anchor="middle" x="775" y="-14.3" font-family="Times,serif" font-size="14.00" fill="gray">Frameworks</text>
</g>
<!-- Release&#45;&gt;Frameworks -->
<g id="edge9" class="edge">
<title>Release&#45;&gt;Frameworks</title>
<path fill="none" stroke="black" d="M695.69,-71.88C711.96,-61.03 732.93,-47.05 749.22,-36.19"/>
</g>
<!-- lib1 -->
<g id="node11" class="node">
<title>lib1</title>
<polygon fill="none" stroke="gray" points="54,-36 51,-40 30,-40 27,-36 0,-36 0,0 54,0 54,-36"/>
<text text-anchor="middle" x="27" y="-14.3" font-family="Times,serif" font-size="14.00" fill="gray">lib</text>
</g>
<!-- Release1&#45;&gt;lib1 -->
<g id="edge10" class="edge">
<title>Release1&#45;&gt;lib1</title>
<path fill="none" stroke="black" d="M126.71,-71.88C104.42,-60.06 75.13,-44.52 54.06,-33.35"/>
</g>
<!-- include1 -->
<g id="node12" class="node">
<title>include1</title>
<polygon fill="none" stroke="gray" points="140,-36 137,-40 116,-40 113,-36 72,-36 72,0 140,0 140,-36"/>
<text text-anchor="middle" x="106" y="-14.3" font-family="Times,serif" font-size="14.00" fill="gray">include</text>
</g>
<!-- Release1&#45;&gt;include1 -->
<g id="edge11" class="edge">
<title>Release1&#45;&gt;include1</title>
<path fill="none" stroke="black" d="M145.9,-71.7C137.68,-60.85 127.14,-46.92 118.95,-36.1"/>
</g>
<!-- Frameworks1 -->
<g id="node13" class="node">
<title>Frameworks1</title>
<polygon fill="none" stroke="gray" points="264,-36 261,-40 240,-40 237,-36 158,-36 158,0 264,0 264,-36"/>
<text text-anchor="middle" x="211" y="-14.3" font-family="Times,serif" font-size="14.00" fill="gray">Frameworks</text>
</g>
<!-- Release1&#45;&gt;Frameworks1 -->
<g id="edge12" class="edge">
<title>Release1&#45;&gt;Frameworks1</title>
<path fill="none" stroke="black" d="M171.85,-71.7C179.91,-60.85 190.26,-46.92 198.29,-36.1"/>
</g>
<!-- lib2 -->
<g id="node14" class="node">
<title>lib2</title>
<polygon fill="none" stroke="gray" points="900,-36 897,-40 876,-40 873,-36 846,-36 846,0 900,0 900,-36"/>
<text text-anchor="middle" x="873" y="-14.3" font-family="Times,serif" font-size="14.00" fill="gray">lib</text>
</g>
<!-- Debug2&#45;&gt;lib2 -->
<g id="edge13" class="edge">
<title>Debug2&#45;&gt;lib2</title>
<path fill="none" stroke="black" d="M902.36,-71.7C896.31,-60.85 888.55,-46.92 882.53,-36.1"/>
</g>
<!-- include2 -->
<g id="node15" class="node">
<title>include2</title>
<polygon fill="none" stroke="gray" points="986,-36 983,-40 962,-40 959,-36 918,-36 918,0 986,0 986,-36"/>
<text text-anchor="middle" x="952" y="-14.3" font-family="Times,serif" font-size="14.00" fill="gray">include</text>
</g>
<!-- Debug2&#45;&gt;include2 -->
<g id="edge14" class="edge">
<title>Debug2&#45;&gt;include2</title>
<path fill="none" stroke="black" d="M921.89,-71.7C928.09,-60.85 936.05,-46.92 942.23,-36.1"/>
</g>
<!-- Frameworks2 -->
<g id="node16" class="node">
<title>Frameworks2</title>
<polygon fill="none" stroke="gray" points="1110,-36 1107,-40 1086,-40 1083,-36 1004,-36 1004,0 1110,0 1110,-36"/>
<text text-anchor="middle" x="1057" y="-14.3" font-family="Times,serif" font-size="14.00" fill="gray">Frameworks</text>
</g>
<!-- Debug2&#45;&gt;Frameworks2 -->
<g id="edge15" class="edge">
<title>Debug2&#45;&gt;Frameworks2</title>
<path fill="none" stroke="black" d="M943.82,-73.64C966.83,-62.53 997.92,-47.52 1021.69,-36.04"/>
</g>
<!-- lib3 -->
<g id="node17" class="node">
<title>lib3</title>
<polygon fill="none" stroke="gray" points="336,-36 333,-40 312,-40 309,-36 282,-36 282,0 336,0 336,-36"/>
<text text-anchor="middle" x="309" y="-14.3" font-family="Times,serif" font-size="14.00" fill="gray">lib</text>
</g>
<!-- Debug3&#45;&gt;lib3 -->
<g id="edge16" class="edge">
<title>Debug3&#45;&gt;lib3</title>
<path fill="none" stroke="black" d="M368.47,-71.7C356.23,-60.85 340.51,-46.92 328.3,-36.1"/>
</g>
<!-- include3 -->
<g id="node18" class="node">
<title>include3</title>
<polygon fill="none" stroke="gray" points="422,-36 419,-40 398,-40 395,-36 354,-36 354,0 422,0 422,-36"/>
<text text-anchor="middle" x="388" y="-14.3" font-family="Times,serif" font-size="14.00" fill="gray">include</text>
</g>
<!-- Debug3&#45;&gt;include3 -->
<g id="edge17" class="edge">
<title>Debug3&#45;&gt;include3</title>
<path fill="none" stroke="black" d="M388,-71.7C388,-60.85 388,-46.92 388,-36.1"/>
</g>
<!-- Frameworks3 -->
<g id="node19" class="node">
<title>Frameworks3</title>
<polygon fill="none" stroke="gray" points="546,-36 543,-40 522,-40 519,-36 440,-36 440,0 546,0 546,-36"/>
<text text-anchor="middle" x="493" y="-14.3" font-family="Times,serif" font-size="14.00" fill="gray">Frameworks</text>
</g>
<!-- Debug3&#45;&gt;Frameworks3 -->
<g id="edge18" class="edge">
<title>Debug3&#45;&gt;Frameworks3</title>
<path fill="none" stroke="black" d="M413.69,-71.88C429.96,-61.03 450.93,-47.05 467.22,-36.19"/>
</g>
<!-- dependency -->
<g id="node7" class="node">
<title>dependency</title>
<polygon fill="none" stroke="black" points="580,-252 577,-256 556,-256 553,-252 478,-252 478,-216 580,-216 580,-252"/>
<text text-anchor="middle" x="529" y="-230.3" font-family="Times,serif" font-size="14.00">dependency</text>
</g>
<!-- dependency&#45;&gt;iphoneos12.1 -->
<g id="edge3" class="edge">
<title>dependency&#45;&gt;iphoneos12.1</title>
<path fill="none" stroke="black" d="M494.51,-215.88C472.66,-205.03 444.5,-191.05 422.63,-180.19"/>
</g>
<!-- dependency&#45;&gt;macosx10.14 -->
<g id="edge1" class="edge">
<title>dependency&#45;&gt;macosx10.14</title>
<path fill="none" stroke="black" d="M563.49,-215.88C585.34,-205.03 613.5,-191.05 635.37,-180.19"/>
</g>
</g>
</svg>
