<?xml version="1.0" encoding="UTF-8" standalone="no"?>
<!DOCTYPE svg PUBLIC "-//W3C//DTD SVG 1.1//EN"
 "http://www.w3.org/Graphics/SVG/1.1/DTD/svg11.dtd">
<!-- Generated by graphviz version 2.43.0 (0)
 -->
<!-- Title: G Pages: 1 -->
<svg width="250pt" height="221pt"
 viewBox="0.00 0.00 249.50 221.00" xmlns="http://www.w3.org/2000/svg" xmlns:xlink="http://www.w3.org/1999/xlink">
<g id="graph0" class="graph" transform="scale(1 1) rotate(0) translate(4 217)">
<title>G</title>
<polygon fill="white" stroke="transparent" points="-4,4 -4,-217 245.5,-217 245.5,4 -4,4"/>
<!-- mulle&#45;sde -->
<g id="node1" class="node">
<title>mulle&#45;sde</title>
<polygon fill="none" stroke="black" points="71.5,-176.5 71.5,-212.5 157.5,-212.5 157.5,-176.5 71.5,-176.5"/>
<text text-anchor="middle" x="114.5" y="-190.8" font-family="Times,serif" font-size="14.00">mulle&#45;sde</text>
</g>
<!-- mulle&#45;craft -->
<g id="node2" class="node">
<title>mulle&#45;craft</title>
<polygon fill="none" stroke="blue" points="67,-88.5 67,-124.5 162,-124.5 162,-88.5 67,-88.5"/>
<text text-anchor="middle" x="114.5" y="-102.8" font-family="Times,serif" font-size="14.00" fill="blue">mulle&#45;craft</text>
</g>
<!-- mulle&#45;sde&#45;&gt;mulle&#45;craft -->
<g id="edge1" class="edge">
<title>mulle&#45;sde&#45;&gt;mulle&#45;craft</title>
<path fill="none" stroke="black" stroke-dasharray="1,5" d="M114.5,-176.1C114.5,-164.25 114.5,-148.32 114.5,-134.79"/>
<polygon fill="black" stroke="black" points="118,-134.58 114.5,-124.58 111,-134.58 118,-134.58"/>
<text text-anchor="middle" x="131" y="-146.8" font-family="Times,serif" font-size="14.00">runs</text>
</g>
<!-- mulle&#45;make -->
<g id="node3" class="node">
<title>mulle&#45;make</title>
<polygon fill="none" stroke="black" points="0,-0.5 0,-36.5 99,-36.5 99,-0.5 0,-0.5"/>
<text text-anchor="middle" x="49.5" y="-14.8" font-family="Times,serif" font-size="14.00">mulle&#45;make</text>
</g>
<!-- mulle&#45;craft&#45;&gt;mulle&#45;make -->
<g id="edge2" class="edge">
<title>mulle&#45;craft&#45;&gt;mulle&#45;make</title>
<path fill="none" stroke="black" stroke-dasharray="1,5" d="M101.35,-88.1C91.95,-75.66 79.15,-58.73 68.62,-44.8"/>
<polygon fill="black" stroke="black" points="71.23,-42.45 62.41,-36.58 65.65,-46.67 71.23,-42.45"/>
<text text-anchor="middle" x="103" y="-58.8" font-family="Times,serif" font-size="14.00">runs</text>
</g>
<!-- mulle&#45;dispense -->
<g id="node4" class="node">
<title>mulle&#45;dispense</title>
<polygon fill="none" stroke="black" points="117.5,-0.5 117.5,-36.5 241.5,-36.5 241.5,-0.5 117.5,-0.5"/>
<text text-anchor="middle" x="179.5" y="-14.8" font-family="Times,serif" font-size="14.00">mulle&#45;dispense</text>
</g>
<!-- mulle&#45;craft&#45;&gt;mulle&#45;dispense -->
<g id="edge3" class="edge">
<title>mulle&#45;craft&#45;&gt;mulle&#45;dispense</title>
<path fill="none" stroke="black" stroke-dasharray="1,5" d="M127.65,-88.1C137.05,-75.66 149.85,-58.73 160.38,-44.8"/>
<polygon fill="black" stroke="black" points="163.35,-46.67 166.59,-36.58 157.77,-42.45 163.35,-46.67"/>
<text text-anchor="middle" x="167" y="-58.8" font-family="Times,serif" font-size="14.00">runs</text>
</g>
</g>
</svg>
