<?xml version="1.0" encoding="UTF-8" standalone="no"?>
<!DOCTYPE svg PUBLIC "-//W3C//DTD SVG 1.1//EN"
 "http://www.w3.org/Graphics/SVG/1.1/DTD/svg11.dtd">
<!-- Generated by graphviz version 2.43.0 (0)
 -->
<!-- Title: G Pages: 1 -->
<svg width="388pt" height="482pt"
 viewBox="0.00 0.00 388.00 482.00" xmlns="http://www.w3.org/2000/svg" xmlns:xlink="http://www.w3.org/1999/xlink">
<g id="graph0" class="graph" transform="scale(1 1) rotate(0) translate(4 478)">
<title>G</title>
<polygon fill="white" stroke="transparent" points="-4,4 -4,-478 384,-478 384,4 -4,4"/>
<!-- mulle&#45;craft -->
<g id="node1" class="node">
<title>mulle&#45;craft</title>
<text text-anchor="middle" x="168" y="-452.3" font-family="Times,serif" font-size="14.00" fill="blue">mulle&#45;craft</text>
</g>
<!-- foo -->
<g id="node2" class="node">
<title>foo</title>
<polygon fill="none" stroke="#5867d6" points="195,-401 192,-405 171,-405 168,-401 141,-401 141,-365 195,-365 195,-401"/>
<text text-anchor="middle" x="168" y="-379.3" font-family="Times,serif" font-size="14.00" fill="#5867d6">foo</text>
</g>
<!-- mulle&#45;craft&#45;&gt;foo -->
<!-- craft -->
<g id="node5" class="node">
<title>craft</title>
<polygon fill="none" stroke="#0fb9b1" points="104,-182 101,-186 80,-186 77,-182 50,-182 50,-146 104,-146 104,-182"/>
<text text-anchor="middle" x="77" y="-160.3" font-family="Times,serif" font-size="14.00" fill="#0fb9b1">craft</text>
</g>
<!-- mulle&#45;craft&#45;&gt;craft -->
<g id="edge13" class="edge">
<title>mulle&#45;craft&#45;&gt;craft</title>
<path fill="none" stroke="black" stroke-dasharray="1,5" d="M120.31,-454.33C70.64,-450.81 0,-436.56 0,-384 0,-384 0,-384 0,-236 0,-211.77 20.87,-193.52 40.88,-181.6"/>
<polygon fill="black" stroke="black" points="42.6,-184.64 49.64,-176.72 39.2,-178.53 42.6,-184.64"/>
<text text-anchor="middle" x="36" y="-306.3" font-family="Times,serif" font-size="14.00">search (2)</text>
</g>
<!-- mulle&#45;craft1 -->
<g id="node9" class="node">
<title>mulle&#45;craft1</title>
<polygon fill="none" stroke="#4b6584" points="279.5,-182 276.5,-186 255.5,-186 252.5,-182 184.5,-182 184.5,-146 279.5,-146 279.5,-182"/>
<text text-anchor="middle" x="232" y="-160.3" font-family="Times,serif" font-size="14.00" fill="#4b6584">mulle&#45;craft</text>
</g>
<!-- mulle&#45;craft&#45;&gt;mulle&#45;craft1 -->
<g id="edge12" class="edge">
<title>mulle&#45;craft&#45;&gt;mulle&#45;craft1</title>
<path fill="none" stroke="black" stroke-dasharray="1,5" d="M215.79,-450.36C256.35,-443.47 308,-426.38 308,-384 308,-384 308,-384 308,-236 308,-215.7 293.35,-199.54 276.91,-187.8"/>
<polygon fill="black" stroke="black" points="278.49,-184.65 268.22,-182.06 274.64,-190.49 278.49,-184.65"/>
<text text-anchor="middle" x="344" y="-306.3" font-family="Times,serif" font-size="14.00">search (1)</text>
</g>
<!-- .mulle -->
<g id="node3" class="node">
<title>.mulle</title>
<polygon fill="none" stroke="#0fb9b1" points="151.5,-328 148.5,-332 127.5,-332 124.5,-328 90.5,-328 90.5,-292 151.5,-292 151.5,-328"/>
<text text-anchor="middle" x="121" y="-306.3" font-family="Times,serif" font-size="14.00" fill="#0fb9b1">.mulle</text>
</g>
<!-- foo&#45;&gt;.mulle -->
<g id="edge1" class="edge">
<title>foo&#45;&gt;.mulle</title>
<path fill="none" stroke="black" d="M156.62,-364.81C149.23,-353.65 139.64,-339.16 132.27,-328.03"/>
</g>
<!-- dependency -->
<g id="node7" class="node">
<title>dependency</title>
<polygon fill="none" stroke="#4b6584" points="272,-328 269,-332 248,-332 245,-328 170,-328 170,-292 272,-292 272,-328"/>
<text text-anchor="middle" x="221" y="-306.3" font-family="Times,serif" font-size="14.00" fill="#4b6584">dependency</text>
</g>
<!-- foo&#45;&gt;dependency -->
<g id="edge5" class="edge">
<title>foo&#45;&gt;dependency</title>
<path fill="none" stroke="black" d="M180.83,-364.81C189.16,-353.65 199.98,-339.16 208.29,-328.03"/>
</g>
<!-- etc -->
<g id="node4" class="node">
<title>etc</title>
<polygon fill="none" stroke="#0fb9b1" points="132,-255 129,-259 108,-259 105,-255 78,-255 78,-219 132,-219 132,-255"/>
<text text-anchor="middle" x="105" y="-233.3" font-family="Times,serif" font-size="14.00" fill="#0fb9b1">etc</text>
</g>
<!-- .mulle&#45;&gt;etc -->
<g id="edge2" class="edge">
<title>.mulle&#45;&gt;etc</title>
<path fill="none" stroke="black" d="M117.13,-291.81C114.61,-280.65 111.35,-266.16 108.84,-255.03"/>
</g>
<!-- etc&#45;&gt;craft -->
<g id="edge3" class="edge">
<title>etc&#45;&gt;craft</title>
<path fill="none" stroke="black" d="M98.22,-218.81C93.82,-207.65 88.11,-193.16 83.72,-182.03"/>
</g>
<!-- definition.darwin -->
<g id="node6" class="node">
<title>definition.darwin</title>
<polygon fill="none" stroke="#0fb9b1" points="146,-109 143,-113 122,-113 119,-109 8,-109 8,-73 146,-73 146,-109"/>
<text text-anchor="middle" x="77" y="-87.3" font-family="Times,serif" font-size="14.00" fill="#0fb9b1">definition.darwin</text>
</g>
<!-- craft&#45;&gt;definition.darwin -->
<g id="edge4" class="edge">
<title>craft&#45;&gt;definition.darwin</title>
<path fill="none" stroke="black" d="M77,-145.81C77,-134.65 77,-120.16 77,-109.03"/>
</g>
<!-- share -->
<g id="node8" class="node">
<title>share</title>
<polygon fill="none" stroke="#4b6584" points="253,-255 250,-259 229,-259 226,-255 197,-255 197,-219 253,-219 253,-255"/>
<text text-anchor="middle" x="225" y="-233.3" font-family="Times,serif" font-size="14.00" fill="#4b6584">share</text>
</g>
<!-- dependency&#45;&gt;share -->
<g id="edge6" class="edge">
<title>dependency&#45;&gt;share</title>
<path fill="none" stroke="black" d="M221.97,-291.81C222.6,-280.65 223.41,-266.16 224.04,-255.03"/>
</g>
<!-- share&#45;&gt;mulle&#45;craft1 -->
<g id="edge7" class="edge">
<title>share&#45;&gt;mulle&#45;craft1</title>
<path fill="none" stroke="black" d="M226.69,-218.81C227.8,-207.65 229.22,-193.16 230.32,-182.03"/>
</g>
<!-- foo2 -->
<g id="node10" class="node">
<title>foo2</title>
<polygon fill="none" stroke="#4b6584" points="259,-109 256,-113 235,-113 232,-109 205,-109 205,-73 259,-73 259,-109"/>
<text text-anchor="middle" x="232" y="-87.3" font-family="Times,serif" font-size="14.00" fill="#4b6584">foo</text>
</g>
<!-- mulle&#45;craft1&#45;&gt;foo2 -->
<g id="edge8" class="edge">
<title>mulle&#45;craft1&#45;&gt;foo2</title>
<path fill="none" stroke="black" d="M232,-145.81C232,-134.65 232,-120.16 232,-109.03"/>
</g>
<!-- definition.linux -->
<g id="node11" class="node">
<title>definition.linux</title>
<polygon fill="none" stroke="#4b6584" points="233,-36 230,-40 209,-40 206,-36 109,-36 109,0 233,0 233,-36"/>
<text text-anchor="middle" x="171" y="-14.3" font-family="Times,serif" font-size="14.00" fill="#4b6584">definition.linux</text>
</g>
<!-- foo2&#45;&gt;definition.linux -->
<g id="edge9" class="edge">
<title>foo2&#45;&gt;definition.linux</title>
<path fill="none" stroke="black" d="M217.23,-72.81C207.64,-61.65 195.19,-47.16 185.63,-36.03"/>
</g>
<!-- definition -->
<g id="node12" class="node">
<title>definition</title>
<polygon fill="none" stroke="#4b6584" points="335,-36 332,-40 311,-40 308,-36 251,-36 251,0 335,0 335,-36"/>
<text text-anchor="middle" x="293" y="-14.3" font-family="Times,serif" font-size="14.00" fill="#4b6584">definition</text>
</g>
<!-- foo2&#45;&gt;definition -->
<g id="edge10" class="edge">
<title>foo2&#45;&gt;definition</title>
<path fill="none" stroke="black" d="M246.77,-72.81C256.36,-61.65 268.81,-47.16 278.37,-36.03"/>
</g>
</g>
</svg>
